<svg width="52.000000" height="52.000000" viewBox="0 0 52 52" fill="none" xmlns="http://www.w3.org/2000/svg" xmlns:xlink="http://www.w3.org/1999/xlink">
	<desc>
			Created with Pixso.
	</desc>
	<defs/>
	<path id="Vector" d="M22.2288 32.4379C23.229 33.4381 24.5854 34 26 34C27.4146 34 28.771 33.4381 29.7712 32.4379C30.7715 31.4377 31.3333 30.0812 31.3333 28.6666C31.3333 27.2522 30.7715 25.8956 29.7712 24.8954C28.771 23.8953 27.4146 23.3334 26 23.3334C24.5854 23.3334 23.229 23.8953 22.2288 24.8954C21.2285 25.8956 20.6667 27.2522 20.6667 28.6666C20.6667 30.0812 21.2285 31.4377 22.2288 32.4379ZM15.3333 50L15.3333 47.3334C15.3333 45.9188 15.8953 44.5623 16.8955 43.5621C17.8955 42.5619 19.2522 42 20.6667 42L31.3333 42C32.7478 42 34.1045 42.5619 35.1045 43.5621C36.1047 44.5623 36.6667 45.9188 36.6667 47.3334L36.6667 50M35.562 11.1046C36.5623 12.1047 37.9189 12.6666 39.3333 12.6666C40.7478 12.6666 42.1045 12.1047 43.1045 11.1046C44.1047 10.1044 44.6667 8.7478 44.6667 7.33337C44.6667 5.91882 44.1047 4.56226 43.1045 3.56213C42.1045 2.56189 40.7478 2 39.3333 2C37.9189 2 36.5623 2.56189 35.562 3.56213C34.562 4.56226 34 5.91882 34 7.33337C34 8.7478 34.562 10.1044 35.562 11.1046ZM39.3333 20.6666L44.6667 20.6666C46.0811 20.6666 47.4377 21.2285 48.438 22.2288C49.438 23.229 50 24.5856 50 26L50 28.6666M8.89551 11.1046C9.89551 12.1047 11.2522 12.6666 12.6667 12.6666C14.0811 12.6666 15.4377 12.1047 16.438 11.1046C17.438 10.1044 18 8.7478 18 7.33337C18 5.91882 17.438 4.56226 16.438 3.56213C15.4377 2.56189 14.0811 2 12.6667 2C11.2522 2 9.89551 2.56189 8.89551 3.56213C7.89526 4.56226 7.33325 5.91882 7.33325 7.33337C7.33325 8.7478 7.89526 10.1044 8.89551 11.1046ZM2 28.6666L2 26C2 24.5856 2.56201 23.229 3.56201 22.2288C4.56226 21.2285 5.91895 20.6666 7.33325 20.6666L12.6667 20.6666" stroke="#1DD100" stroke-opacity="1.000000" stroke-width="4.000000" stroke-linejoin="round"/>
</svg>
