<svg width="23.000000" height="23.000000" viewBox="0 0 23 23" fill="none" xmlns="http://www.w3.org/2000/svg" xmlns:xlink="http://www.w3.org/1999/xlink">
	<desc>
			Created with Pixso.
	</desc>
	<defs/>
	<path id="Vector" d="M3.33325 4.5L3.33325 10.3333C2.7146 10.3333 2.12109 10.5792 1.68335 11.0168C1.24585 11.4543 1 12.0478 1 12.6667L1 17.3333C1 17.9522 1.24585 18.5457 1.68335 18.9832C2.12109 19.4208 2.7146 19.6667 3.33325 19.6667L3.5 19.6667L3.52002 19.6867L5.47998 19.6867L5.5 19.6667L17.5 19.6667L17.52 19.6867L19.48 19.6867L19.5 19.6667L19.6667 19.6667C20.2854 19.6667 20.8789 19.4208 21.3167 18.9832C21.7542 18.5457 22 17.9522 22 17.3333L22 12.6667C22 12.0478 21.7542 11.4543 21.3167 11.0168C20.8789 10.5792 20.2854 10.3333 19.6667 10.3333L19.6667 4.5C19.6667 3.57175 19.2979 2.68152 18.6416 2.02512C17.9851 1.36874 17.095 1 16.1667 1L6.83325 1C5.90503 1 5.01489 1.36874 4.3584 2.02512C3.70215 2.68152 3.33325 3.57175 3.33325 4.5ZM19.6667 10.3333C19.0479 10.3333 18.4543 10.5792 18.0168 11.0168C17.5791 11.4543 17.3333 12.0478 17.3333 12.6667L17.3333 15L5.66675 15L5.66675 12.6667C5.66675 12.0478 5.4209 11.4543 4.98315 11.0168C4.54565 10.5792 3.95215 10.3333 3.33325 10.3333L19.6667 10.3333ZM5.5 22L5.47998 21.98L3.52002 21.98L3.5 22C3.5 22.56 3.93994 23 4.5 23C5.06006 23 5.5 22.56 5.5 22ZM19.5 22L19.48 21.98L17.52 21.98L17.5 22C17.5 22.56 17.9399 23 18.5 23C19.0601 23 19.5 22.56 19.5 22Z" fill="#1DD100" fill-opacity="1.000000" fill-rule="evenodd"/>
	<path id="Vector" d="M4.98315 11.0168C5.4209 11.4543 5.66675 12.0478 5.66675 12.6667L5.66675 15L17.3333 15L17.3333 12.6667C17.3333 12.0478 17.5791 11.4543 18.0168 11.0168C18.4543 10.5792 19.0479 10.3333 19.6667 10.3333C20.2854 10.3333 20.8789 10.5792 21.3167 11.0168C21.7542 11.4543 22 12.0478 22 12.6667L22 17.3333C22 17.9522 21.7542 18.5457 21.3167 18.9832C20.8789 19.4208 20.2854 19.6667 19.6667 19.6667L3.33325 19.6667C2.7146 19.6667 2.12109 19.4208 1.68335 18.9832C1.24585 18.5457 1 17.9522 1 17.3333L1 12.6667C1 12.0478 1.24585 11.4543 1.68335 11.0168C2.12109 10.5792 2.7146 10.3333 3.33325 10.3333C3.95215 10.3333 4.54565 10.5792 4.98315 11.0168ZM3.33325 10.3333L3.33325 4.5C3.33325 3.57175 3.70215 2.68152 4.3584 2.02512C5.01489 1.36874 5.90503 1 6.83325 1L16.1667 1C17.095 1 17.9851 1.36874 18.6416 2.02512C19.2979 2.68152 19.6667 3.57175 19.6667 4.5L19.6667 10.3333M4.5 19.6667L4.5 22M18.5 19.6667L18.5 22" stroke="#1DD100" stroke-opacity="1.000000" stroke-width="2.000000" stroke-linejoin="round"/>
</svg>
