<svg width="52.000000" height="41.333374" viewBox="0 0 52 41.3334" fill="none" xmlns="http://www.w3.org/2000/svg" xmlns:xlink="http://www.w3.org/1999/xlink">
	<desc>
			Created with Pixso.
	</desc>
	<defs/>
	<path id="Vector" d="M34 2L34 7.33337M34 18L34 23.3334M34 34L34 39.3334M44.6667 2C46.0811 2 47.4377 2.56189 48.438 3.56213C49.438 4.56226 50 5.91882 50 7.33337L50 15.3334C48.5854 15.3334 47.229 15.8953 46.2288 16.8954C45.2285 17.8956 44.6667 19.2522 44.6667 20.6666C44.6667 22.0812 45.2285 23.4377 46.2288 24.4379C47.229 25.4381 48.5854 26 50 26L50 34C50 35.4144 49.438 36.771 48.438 37.7712C47.4377 38.7715 46.0811 39.3334 44.6667 39.3334L7.33325 39.3334C5.91895 39.3334 4.56226 38.7715 3.56201 37.7712C2.56201 36.771 2 35.4144 2 34L2 26C3.41455 26 4.771 25.4381 5.77124 24.4379C6.77148 23.4377 7.33325 22.0812 7.33325 20.6666C7.33325 19.2522 6.77148 17.8956 5.77124 16.8954C4.771 15.8953 3.41455 15.3334 2 15.3334L2 7.33337C2 5.91882 2.56201 4.56226 3.56201 3.56213C4.56226 2.56189 5.91895 2 7.33325 2L44.6667 2Z" stroke="#1DD100" stroke-opacity="1.000000" stroke-width="4.000000" stroke-linejoin="round"/>
</svg>
